<svg width="160" height="30" viewBox="0 0 160 30" fill="none" xmlns="http://www.w3.org/2000/svg">
<path d="M32.4 13.4C32 13.8 31.7 14.2 31.5 14.7C31.3 15.2 31.3 15.7 31.3 16.3C31.4 16.9 31.3 17.6 31.1 18.2C30.9 18.8 30.5 19.3 30.1 19.8C29.7 20.2 29.1 20.6 28.5 20.8C27.9 21 27.3 21.1 26.6 21C25.8 20.9 25.1 21.1 24.4 21.5C23.7 21.9 23.2 22.4 22.9 23.1C22.6 23.8 22.5 24.6 22.6 25.3C22.7 26 23.1 26.7 23.6 27.3C24.1 27.8 24.8 28.2 25.6 28.3C26.3 28.4 27.1 28.3 27.8 28C28.5 27.7 29.1 27.2 29.4 26.5C29.7 25.8 29.9 25.1 29.9 24.3C29.8 23.7 29.9 23 30.1 22.4C30.3 21.8 30.7 21.3 31.1 20.8C31.5 20.4 32.1 20 32.7 19.8C33.3 19.6 33.9 19.5 34.6 19.6C35.2 19.7 35.8 19.6 36.4 19.3C37 19.1 37.5 18.7 37.8 18.2C38.2 17.7 38.4 17.1 38.5 16.5C38.6 15.9 38.5 15.3 38.3 14.7C38.1 14.1 37.7 13.6 37.3 13.2C36.9 12.8 36.3 12.5 35.7 12.4C35.1 12.3 34.5 12.3 33.9 12.5C33.4 12.6 32.9 12.9 32.4 13.4Z" fill="#F9B928"/>
<path d="M25.0004 18.6C25.5004 18.6 26.1004 18.6 26.6004 18.4C27.1004 18.2 27.6004 17.9 27.9004 17.5C28.3004 17.1 28.6004 16.7 28.8004 16.2C29.0004 15.7 29.0004 15.2 29.0004 14.6C28.9004 14 29.0004 13.3 29.2004 12.7C29.4004 12.1 29.8004 11.6 30.2004 11.1C30.6004 10.7 31.2004 10.3 31.8004 10.1C32.4004 9.9 33.0004 9.8 33.7004 9.9C34.5004 10 35.2004 9.8 35.9004 9.4C36.6004 9 37.1004 8.5 37.4004 7.8C37.7004 7.1 37.8004 6.3 37.7004 5.6C37.6004 4.9 37.2004 4.2 36.7004 3.6C36.2004 3.1 35.5004 2.7 34.7004 2.6C34.0004 2.5 33.2004 2.6 32.5004 2.9C31.8004 3.2 31.2004 3.7 30.9004 4.4C30.5004 5.1 30.4004 5.8 30.4004 6.6C30.5004 7.2 30.4004 7.9 30.2004 8.5C30.0004 9.1 29.6004 9.6 29.2004 10.1C28.8004 10.5 28.2004 10.9 27.6004 11.1C27.0004 11.3 26.4004 11.4 25.7004 11.3C25.2004 11.2 24.6004 11.3 24.1004 11.5C23.6004 11.7 23.1004 12 22.8004 12.4C22.4004 12.8 22.1004 13.2 21.9004 13.7C21.7004 14.2 21.7004 14.7 21.7004 15.3C21.8004 15.9 21.7004 16.6 21.5004 17.2C21.3004 17.8 20.9004 18.3 20.5004 18.8C20.1004 19.2 19.5004 19.6 18.9004 19.8C18.3004 19.9 17.6004 20 17.0004 20C16.2004 19.9 15.5004 20.1 14.8004 20.5C14.1004 20.9 13.6004 21.4 13.3004 22.1C13.0004 22.8 12.9004 23.5 13.0004 24.3C13.1004 25 13.5004 25.7 14.0004 26.3C14.5004 26.8 15.2004 27.2 16.0004 27.3C16.7004 27.4 17.5004 27.3 18.2004 27C18.9004 26.7 19.5004 26.2 19.8004 25.5C20.2004 24.8 20.3004 24.1 20.3004 23.3C20.2004 22.7 20.3004 22 20.5004 21.4C20.7004 20.8 21.1004 20.3 21.5004 19.8C21.9004 19.4 22.5004 19 23.1004 18.8C23.8004 18.7 24.4004 18.6 25.0004 18.6Z" fill="#F9B928"/>
<path d="M18.2994 16.6C18.6994 16.2 18.9994 15.8 19.0994 15.3C19.2994 14.8 19.2994 14.3 19.2994 13.7C19.1994 13.1 19.2994 12.4 19.4994 11.8C19.6994 11.2 20.0994 10.7 20.4994 10.2C20.8994 9.79998 21.4994 9.39998 22.0994 9.19998C22.7994 9.09998 23.4994 8.99998 24.0994 8.99998C24.8994 9.09998 25.5994 8.89998 26.2994 8.49998C26.9994 8.09998 27.4994 7.59998 27.7994 6.89998C28.0994 6.19998 28.1994 5.39998 28.0994 4.69998C27.9994 3.99998 27.5994 3.29998 27.0994 2.69998C26.5994 2.09998 25.8994 1.79998 25.0994 1.69998C24.3994 1.59998 23.5994 1.69998 22.8994 1.99998C22.1994 2.29998 21.5994 2.79998 21.2994 3.49998C20.8994 4.19998 20.7994 4.89998 20.7994 5.69998C20.8994 6.29998 20.7994 6.99998 20.5994 7.59998C20.3994 8.19998 19.9994 8.69998 19.5994 9.19998C19.1994 9.59998 18.5994 9.99998 17.9994 10.2C17.3994 10.4 16.7994 10.5 16.0994 10.4C15.4994 10.3 14.8994 10.4 14.2994 10.7C13.6994 11 13.1994 11.3 12.8994 11.8C12.4994 12.3 12.2994 12.9 12.1994 13.5C12.0994 14.1 12.1994 14.7 12.3994 15.3C12.5994 15.9 12.9994 16.4 13.3994 16.8C13.8994 17.2 14.3994 17.5 14.9994 17.6C15.5994 17.7 16.1994 17.7 16.7994 17.5C17.3994 17.4 17.8994 17.1 18.2994 16.6Z" fill="#F9B928"/>
<path d="M49.3008 6.69995H52.3008V21.2H49.3008V6.69995Z" fill="#F9B928"/>
<path d="M54 16.2C54 15.2 54.3 14.1 54.9 13.3C55.5 12.4 56.3 11.8 57.3 11.4C58.3 11 59.3 10.9 60.3 11.1C61.3 11.3 62.3 11.8 63 12.5C63.7 13.2 64.2 14.2 64.4 15.2C64.6 16.2 64.5 17.3 64.1 18.2C63.7 19.2 63 20 62.2 20.6C61.3 21.2 60.3 21.5 59.3 21.5C58.6 21.5 57.9 21.4 57.3 21.1C56.7 20.8 56.1 20.5 55.6 20C55.1 19.5 54.7 18.9 54.5 18.3C54.1 17.5 54 16.8 54 16.2ZM61.5 16.2C61.5 15.8 61.3 15.3 61.1 15C60.8 14.6 60.5 14.4 60.1 14.2C59.7 14 59.2 14 58.8 14.1C58.4 14.2 58 14.4 57.7 14.7C57.4 15 57.2 15.4 57.1 15.9C57 16.3 57.1 16.8 57.2 17.2C57.4 17.6 57.7 18 58 18.2C58.4 18.4 58.8 18.6 59.3 18.6C59.6 18.6 59.9 18.6 60.2 18.4C60.5 18.3 60.7 18.1 61 17.9C61.2 17.7 61.4 17.4 61.5 17.1C61.5 16.8 61.5 16.5 61.5 16.2Z" fill="#F9B928"/>
<path d="M76.2996 11.2V20.6C76.2996 23.9 73.6996 25.3 71.0996 25.3C70.1996 25.4 69.1996 25.2 68.3996 24.8C67.5996 24.4 66.8996 23.7 66.3996 22.9L68.8996 21.4C69.0996 21.8 69.3996 22.2 69.7996 22.4C70.1996 22.6 70.6996 22.7 71.0996 22.7C71.3996 22.7 71.6996 22.7 71.9996 22.6C72.2996 22.5 72.4996 22.4 72.7996 22.2C72.9996 22 73.1996 21.7 73.2996 21.5C73.3996 21.2 73.3996 20.9 73.3996 20.6V19.7C73.0996 20.1 72.5996 20.5 72.0996 20.7C71.5996 20.9 71.0996 21 70.4996 21C69.1996 21 67.9996 20.4 66.9996 19.5C66.0996 18.6 65.5996 17.3 65.5996 16C65.5996 14.7 66.0996 13.4 66.9996 12.5C67.8996 11.6 69.0996 11 70.4996 11C70.9996 11 71.5996 11.1 72.0996 11.3C72.5996 11.5 72.9996 11.9 73.3996 12.3V11.3L76.2996 11.2ZM73.3996 16C73.3996 15.5 73.2996 15 72.9996 14.6C72.6996 14.2 72.3996 13.9 71.8996 13.7C71.4996 13.5 70.9996 13.4 70.4996 13.5C69.9996 13.6 69.5996 13.8 69.1996 14.1C68.8996 14.4 68.5996 14.9 68.4996 15.3C68.3996 15.8 68.3996 16.3 68.5996 16.7C68.7996 17.1 69.0996 17.5 69.4996 17.8C69.8996 18.1 70.3996 18.2 70.7996 18.2C71.0996 18.2 71.3996 18.2 71.6996 18.1C71.9996 18 72.2996 17.8 72.4996 17.6C72.6996 17.4 72.8996 17.1 72.9996 16.8C73.3996 16.6 73.3996 16.3 73.3996 16Z" fill="#F9B928"/>
<path d="M78 16.2C78 15.2 78.3 14.1 78.9 13.3C79.5 12.4 80.3 11.8 81.3 11.4C82.3 11 83.3 10.9 84.3 11.1C85.3 11.3 86.3 11.8 87 12.5C87.7 13.2 88.2 14.2 88.4 15.2C88.6 16.2 88.5 17.3 88.1 18.2C87.7 19.2 87 20 86.2 20.6C85.3 21.2 84.3 21.5 83.3 21.5C82.6 21.5 81.9 21.4 81.3 21.1C80.7 20.8 80.1 20.5 79.6 20C79.1 19.5 78.7 18.9 78.5 18.3C78.1 17.5 78 16.8 78 16.2ZM85.5 16.2C85.5 15.8 85.3 15.3 85.1 15C84.8 14.6 84.5 14.4 84.1 14.2C83.7 14 83.2 14 82.8 14.1C82.4 14.2 82 14.4 81.6 14.7C81.3 15 81.1 15.4 81 15.9C80.9 16.3 81 16.8 81.1 17.2C81.2 17.6 81.6 18 81.9 18.2C82.3 18.4 82.7 18.6 83.2 18.6C83.5 18.6 83.8 18.6 84.1 18.4C84.4 18.3 84.6 18.1 84.9 17.9C85.1 17.7 85.3 17.4 85.4 17.1C85.5 16.8 85.5 16.5 85.5 16.2Z" fill="#F9B928"/>
<path d="M89.9004 8.59997C89.9004 8.19997 90.0004 7.89997 90.2004 7.59997C90.4004 7.29997 90.6004 6.99997 91.0004 6.89997C91.3004 6.79997 91.7004 6.69997 92.0004 6.79997C92.3004 6.89997 92.7004 6.99997 92.9004 7.29997C93.1004 7.49997 93.3004 7.89997 93.4004 8.19997C93.5004 8.49997 93.4004 8.89997 93.3004 9.19997C93.2004 9.49997 92.9004 9.79997 92.6004 9.99997C92.3004 10.2 92.0004 10.3 91.6004 10.3C91.1004 10.3 90.7004 10.1 90.3004 9.79997C90.1004 9.49997 89.9004 8.99997 89.9004 8.59997ZM90.2004 11.2H93.2004V21.1H90.2004V11.2Z" fill="#F9B928"/>
<path d="M106.001 16.2C106.001 16.9 105.901 17.5 105.701 18.1C105.501 18.7 105.101 19.3 104.701 19.8C104.301 20.3 103.701 20.7 103.101 21C102.501 21.3 101.901 21.4 101.201 21.5C100.601 21.5 100.101 21.4 99.6008 21.2C99.1008 21 98.6008 20.7 98.3008 20.3V25.2H95.3008V11.2H98.3008V12.1C98.7008 11.7 99.1008 11.4 99.6008 11.2C100.101 11 100.701 10.9 101.201 10.9C101.901 10.9 102.501 11.1 103.101 11.4C103.701 11.7 104.201 12.1 104.701 12.6C105.101 13.1 105.501 13.7 105.701 14.3C105.901 14.8 106.001 15.5 106.001 16.2ZM103.001 16.2C103.001 15.7 102.801 15.3 102.601 14.9C102.301 14.5 102.001 14.2 101.501 14.1C101.101 13.9 100.601 13.9 100.101 14C99.6008 14.1 99.2008 14.3 98.9008 14.7C98.6008 15 98.4008 15.5 98.3008 15.9C98.2008 16.4 98.3008 16.8 98.4008 17.3C98.6008 17.7 98.9008 18.1 99.3008 18.3C99.7008 18.6 100.101 18.7 100.601 18.7C100.901 18.7 101.201 18.7 101.501 18.5C101.801 18.4 102.101 18.2 102.301 18C102.501 17.8 102.701 17.5 102.801 17.2C103.001 16.8 103.001 16.5 103.001 16.2Z" fill="#F9B928"/>
<path d="M115.099 18.1C115.099 20.4 113.099 21.3 110.999 21.3C110.099 21.4 109.299 21.2 108.499 20.8C107.699 20.4 107.099 19.7 106.699 19L109.299 17.5C109.399 17.9 109.599 18.2 109.899 18.4C110.199 18.6 110.599 18.7 110.899 18.7C111.599 18.7 111.999 18.5 111.999 18.1C111.999 17 107.099 17.6 107.099 14.2C107.099 12 108.899 11 110.999 11C111.799 11 112.499 11.2 113.199 11.5C113.899 11.9 114.399 12.4 114.799 13.1L112.299 14.5C112.199 14.2 111.999 14 111.799 13.9C111.599 13.8 111.299 13.7 110.999 13.7C110.499 13.7 110.199 13.9 110.199 14.3C110.299 15.2 115.099 14.5 115.099 18.1Z" fill="#F9B928"/>
<path d="M126 11.2V21.1H123V20.2C122.7 20.6 122.2 20.9 121.7 21.1C121.2 21.3 120.7 21.4 120.1 21.4C118.1 21.4 116.4 20 116.4 17.3V11.2H119.4V16.8C119.4 17 119.4 17.3 119.5 17.5C119.6 17.7 119.7 17.9 119.9 18.1C120.1 18.3 120.3 18.4 120.5 18.5C120.7 18.6 121 18.6 121.2 18.6C122.3 18.6 123 18 123 16.6V11.2H126Z" fill="#F9B928"/>
<path d="M142.999 15V21.1H139.999V15.3C139.999 14.3 139.499 13.7 138.599 13.7C137.599 13.7 137.099 14.4 137.099 15.6V21.2H134.099V15.4C134.099 14.4 133.599 13.8 132.699 13.8C131.699 13.8 131.199 14.5 131.199 15.7V21.3H128.199V11.4H131.199V12.3C131.499 11.9 131.899 11.6 132.399 11.4C132.899 11.2 133.399 11.1 133.899 11.1C134.399 11.1 134.899 11.2 135.399 11.4C135.899 11.6 136.199 12 136.499 12.4C136.799 12 137.299 11.6 137.799 11.4C138.299 11.2 138.899 11.1 139.399 11.1C141.499 10.9 142.999 12.6 142.999 15Z" fill="#F9B928"/>
<path d="M145.501 11.1C146.701 11.1 147.701 10.1 147.701 8.89995C147.701 7.69995 146.701 6.69995 145.501 6.69995C144.301 6.69995 143.301 7.69995 143.301 8.89995C143.301 10.2 144.301 11.1 145.501 11.1Z" fill="#F9B928"/>
</svg>
