<svg width="160" height="30" viewBox="0 0 160 30" fill="none" xmlns="http://www.w3.org/2000/svg">
<g clip-path="url(#clip0_97_3094)">
<path d="M13.4469 23.968C10.4607 26.9542 5.40329 26.9423 3.99088 22.9624C3.71435 22.1832 3.49326 21.382 3.33064 20.5645C2.66669 17.2265 3.00746 13.7667 4.30985 10.6224C5.61224 7.4782 7.81776 4.79076 10.6475 2.89998C13.4773 1.0092 16.8042 -1.45785e-07 20.2075 0C23.6108 1.45785e-07 26.9377 1.0092 29.7674 2.89998C32.5972 4.79076 34.8027 7.4782 36.1051 10.6225C37.4075 13.7667 37.7482 17.2265 37.0843 20.5645C36.9217 21.382 36.7006 22.1832 36.424 22.9624C35.0116 26.9423 29.9542 26.9542 26.968 23.968L22.3584 19.3584C21.918 18.918 21.9635 18.1917 22.085 17.5809C22.1588 17.2096 22.1209 16.8247 21.976 16.4749C21.8311 16.1251 21.5858 15.8261 21.271 15.6158C20.9562 15.4055 20.5861 15.2932 20.2075 15.2932C19.8289 15.2932 19.4588 15.4055 19.144 15.6158C18.8291 15.8261 18.5838 16.1251 18.4389 16.4749C18.294 16.8247 18.2561 17.2096 18.33 17.5809C18.4515 18.1917 18.4969 18.918 18.0565 19.3584L13.4469 23.968Z" fill="url(#paint0_linear_97_3094)"/>
<path d="M51.4138 19.8366H56.0391V22.5623H47.8828V8.06677H51.4138V19.8366Z" fill="#3A3B7B"/>
<path d="M62.3492 22.7276C61.2204 22.7276 60.2017 22.4867 59.2931 22.0049C58.3984 21.5231 57.6894 20.8348 57.1663 19.94C56.657 19.0452 56.4023 17.999 56.4023 16.8013C56.4023 15.6175 56.6638 14.5781 57.1869 13.6833C57.7101 12.7748 58.4259 12.0796 59.3344 11.5978C60.243 11.116 61.2617 10.8751 62.3905 10.8751C63.5193 10.8751 64.538 11.116 65.4465 11.5978C66.3551 12.0796 67.0709 12.7748 67.594 13.6833C68.1171 14.5781 68.3787 15.6175 68.3787 16.8013C68.3787 17.9852 68.1102 19.0314 67.5734 19.94C67.0503 20.8348 66.3276 21.5231 65.4052 22.0049C64.4967 22.4867 63.478 22.7276 62.3492 22.7276ZM62.3492 19.6715C63.0237 19.6715 63.595 19.4238 64.0631 18.9282C64.5449 18.4326 64.7858 17.7237 64.7858 16.8013C64.7858 15.879 64.5517 15.1701 64.0837 14.6745C63.6294 14.1789 63.065 13.9311 62.3905 13.9311C61.7022 13.9311 61.1309 14.1789 60.6766 14.6745C60.2223 15.1563 59.9952 15.8652 59.9952 16.8013C59.9952 17.7237 60.2155 18.4326 60.656 18.9282C61.1103 19.4238 61.6747 19.6715 62.3492 19.6715Z" fill="#3A3B7B"/>
<path d="M74.0093 10.8751C74.8215 10.8751 75.5305 11.0403 76.1362 11.3707C76.7556 11.701 77.2306 12.1347 77.561 12.6715V11.0403H81.0919V22.5417C81.0919 23.6017 80.8786 24.5585 80.4518 25.4119C80.0388 26.2792 79.3987 26.9675 78.5315 27.4768C77.678 27.9862 76.6111 28.2409 75.3309 28.2409C73.6239 28.2409 72.2404 27.8348 71.1804 27.0226C70.1205 26.2241 69.5147 25.1366 69.3633 23.76H72.853C72.9631 24.2005 73.2247 24.5447 73.6377 24.7925C74.0506 25.054 74.56 25.1848 75.1657 25.1848C75.8953 25.1848 76.4734 24.9714 76.9002 24.5447C77.3407 24.1317 77.561 23.4641 77.561 22.5417V20.9105C77.2168 21.4473 76.7419 21.8879 76.1362 22.232C75.5305 22.5624 74.8215 22.7276 74.0093 22.7276C73.0595 22.7276 72.1991 22.4867 71.4282 22.0049C70.6573 21.5093 70.0447 20.8141 69.5905 19.9193C69.15 19.0108 68.9297 17.9646 68.9297 16.7807C68.9297 15.5968 69.15 14.5575 69.5905 13.6627C70.0447 12.7679 70.6573 12.0796 71.4282 11.5978C72.1991 11.116 73.0595 10.8751 74.0093 10.8751ZM77.561 16.8013C77.561 15.9203 77.3132 15.2251 76.8176 14.7158C76.3358 14.2065 75.7438 13.9518 75.0418 13.9518C74.3397 13.9518 73.7409 14.2065 73.2453 14.7158C72.7635 15.2114 72.5226 15.8997 72.5226 16.7807C72.5226 17.6617 72.7635 18.3638 73.2453 18.8869C73.7409 19.3962 74.3397 19.6509 75.0418 19.6509C75.7438 19.6509 76.3358 19.3962 76.8176 18.8869C77.3132 18.3775 77.561 17.6824 77.561 16.8013Z" fill="#3A3B7B"/>
<path d="M88.2731 22.7276C87.1443 22.7276 86.1256 22.4867 85.2171 22.0049C84.3223 21.5231 83.6133 20.8348 83.0902 19.94C82.5809 19.0452 82.3262 17.999 82.3262 16.8013C82.3262 15.6175 82.5877 14.5781 83.1109 13.6833C83.634 12.7748 84.3498 12.0796 85.2583 11.5978C86.1669 11.116 87.1856 10.8751 88.3144 10.8751C89.4432 10.8751 90.4619 11.116 91.3704 11.5978C92.279 12.0796 92.9948 12.7748 93.5179 13.6833C94.041 14.5781 94.3026 15.6175 94.3026 16.8013C94.3026 17.9852 94.0342 19.0314 93.4973 19.94C92.9742 20.8348 92.2515 21.5231 91.3291 22.0049C90.4206 22.4867 89.4019 22.7276 88.2731 22.7276ZM88.2731 19.6715C88.9476 19.6715 89.5189 19.4238 89.987 18.9282C90.4688 18.4326 90.7097 17.7237 90.7097 16.8013C90.7097 15.879 90.4756 15.1701 90.0076 14.6745C89.5533 14.1789 88.9889 13.9311 88.3144 13.9311C87.6261 13.9311 87.0548 14.1789 86.6005 14.6745C86.1463 15.1563 85.9191 15.8652 85.9191 16.8013C85.9191 17.7237 86.1394 18.4326 86.5799 18.9282C87.0342 19.4238 87.5986 19.6715 88.2731 19.6715Z" fill="#3A3B7B"/>
<path d="M97.3328 9.84264C96.7133 9.84264 96.204 9.66368 95.8048 9.30577C95.4193 8.93409 95.2266 8.47981 95.2266 7.94294C95.2266 7.3923 95.4193 6.93802 95.8048 6.5801C96.204 6.20842 96.7133 6.02258 97.3328 6.02258C97.9385 6.02258 98.4341 6.20842 98.8195 6.5801C99.2187 6.93802 99.4183 7.3923 99.4183 7.94294C99.4183 8.47981 99.2187 8.93409 98.8195 9.30577C98.4341 9.66368 97.9385 9.84264 97.3328 9.84264ZM99.0879 11.0403V22.5624H95.557V11.0403H99.0879Z" fill="#3A3B7B"/>
<path d="M104.556 12.6715C104.9 12.1347 105.375 11.701 105.981 11.3707C106.587 11.0403 107.296 10.8751 108.108 10.8751C109.058 10.8751 109.918 11.116 110.689 11.5978C111.46 12.0796 112.066 12.7679 112.506 13.6627C112.96 14.5575 113.188 15.5968 113.188 16.7807C113.188 17.9646 112.96 19.0108 112.506 19.9193C112.066 20.8141 111.46 21.5093 110.689 22.0049C109.918 22.4867 109.058 22.7276 108.108 22.7276C107.309 22.7276 106.601 22.5624 105.981 22.232C105.375 21.9016 104.9 21.4749 104.556 20.9518V28.055H101.025V11.0403H104.556V12.6715ZM109.595 16.7807C109.595 15.8997 109.347 15.2114 108.851 14.7158C108.369 14.2065 107.771 13.9518 107.055 13.9518C106.353 13.9518 105.754 14.2065 105.258 14.7158C104.777 15.2251 104.536 15.9203 104.536 16.8013C104.536 17.6824 104.777 18.3775 105.258 18.8869C105.754 19.3962 106.353 19.6509 107.055 19.6509C107.757 19.6509 108.356 19.3962 108.851 18.8869C109.347 18.3638 109.595 17.6617 109.595 16.7807Z" fill="#3A3B7B"/>
<path d="M119.11 22.7276C118.105 22.7276 117.21 22.5555 116.425 22.2114C115.641 21.8672 115.021 21.3992 114.567 20.8072C114.113 20.2015 113.858 19.527 113.803 18.7836H117.293C117.334 19.1828 117.52 19.5063 117.85 19.7541C118.181 20.0019 118.587 20.1258 119.069 20.1258C119.509 20.1258 119.846 20.0432 120.08 19.878C120.328 19.6991 120.452 19.4719 120.452 19.1966C120.452 18.8662 120.28 18.6253 119.936 18.4739C119.592 18.3087 119.034 18.1298 118.263 17.937C117.437 17.7443 116.749 17.5447 116.198 17.3382C115.648 17.118 115.173 16.7807 114.774 16.3264C114.374 15.8584 114.175 15.232 114.175 14.4474C114.175 13.7866 114.354 13.1878 114.712 12.6509C115.083 12.1003 115.62 11.6666 116.322 11.35C117.038 11.0334 117.885 10.8751 118.862 10.8751C120.307 10.8751 121.443 11.233 122.269 11.9488C123.109 12.6647 123.591 13.6145 123.715 14.7984H120.452C120.397 14.3992 120.218 14.0826 119.915 13.8485C119.626 13.6145 119.241 13.4975 118.759 13.4975C118.346 13.4975 118.029 13.5801 117.809 13.7453C117.589 13.8967 117.479 14.1101 117.479 14.3854C117.479 14.7158 117.651 14.9636 117.995 15.1288C118.353 15.294 118.903 15.4592 119.647 15.6243C120.5 15.8446 121.195 16.0649 121.732 16.2851C122.269 16.4916 122.737 16.8357 123.136 17.3176C123.549 17.7856 123.763 18.4188 123.777 19.2173C123.777 19.8918 123.584 20.4975 123.198 21.0344C122.827 21.5575 122.283 21.9705 121.567 22.2733C120.865 22.5762 120.046 22.7276 119.11 22.7276Z" fill="#3A3B7B"/>
<path d="M136.694 11.0403V22.5624H133.163V20.9931C132.805 21.5024 132.316 21.9154 131.697 22.232C131.091 22.5349 130.417 22.6863 129.673 22.6863C128.792 22.6863 128.014 22.4936 127.34 22.1081C126.665 21.7089 126.142 21.1376 125.771 20.3943C125.399 19.6509 125.213 18.7768 125.213 17.7718V11.0403H128.723V17.2969C128.723 18.0678 128.923 18.6666 129.322 19.0934C129.721 19.5201 130.258 19.7335 130.933 19.7335C131.621 19.7335 132.165 19.5201 132.564 19.0934C132.963 18.6666 133.163 18.0678 133.163 17.2969V11.0403H136.694Z" fill="#3A3B7B"/>
<path d="M153.313 10.9164C154.744 10.9164 155.88 11.35 156.72 12.2173C157.573 13.0845 158 14.289 158 15.8308V22.5624H154.49V16.3058C154.49 15.5624 154.29 14.9911 153.891 14.5919C153.505 14.1789 152.969 13.9724 152.28 13.9724C151.592 13.9724 151.048 14.1789 150.649 14.5919C150.264 14.9911 150.071 15.5624 150.071 16.3058V22.5624H146.56V16.3058C146.56 15.5624 146.361 14.9911 145.962 14.5919C145.576 14.1789 145.039 13.9724 144.351 13.9724C143.663 13.9724 143.119 14.1789 142.72 14.5919C142.334 14.9911 142.142 15.5624 142.142 16.3058V22.5624H138.611V11.0403H142.142V12.4857C142.5 12.0039 142.968 11.6253 143.546 11.35C144.124 11.0609 144.778 10.9164 145.507 10.9164C146.375 10.9164 147.146 11.1022 147.82 11.4739C148.508 11.8456 149.045 12.3756 149.431 13.0639C149.83 12.4306 150.374 11.9144 151.062 11.5152C151.75 11.116 152.501 10.9164 153.313 10.9164Z" fill="#3A3B7B"/>
</g>
<defs>
<linearGradient id="paint0_linear_97_3094" x1="35.8486" y1="8.60374" x2="5.30537" y2="8.60374" gradientUnits="userSpaceOnUse">
<stop stop-color="#64C2DB"/>
<stop offset="0.510417" stop-color="#7476ED"/>
<stop offset="1" stop-color="#E56F8C"/>
</linearGradient>
<clipPath id="clip0_97_3094">
<rect width="155" height="29" fill="white" transform="translate(3)"/>
</clipPath>
</defs>
</svg>
